<mxfile host="app.diagrams.net" agent="Mozilla/5.0 (Windows NT 10.0; Win64; x64; rv:141.0) Gecko/20100101 Firefox/141.0" version="27.1.6">
  <diagram name="Pagina-1" id="VJcN2m3pTZNfSYxiq9-Y">
    <mxGraphModel grid="0" page="1" gridSize="4" guides="1" tooltips="1" connect="1" arrows="1" fold="1" pageScale="1" pageWidth="3300" pageHeight="4681" math="0" shadow="0">
      <root>
        <mxCell id="0" />
        <mxCell id="1" parent="0" />
        <mxCell id="YZUe3HRQWO90OGgwzxZx-1" value="Arduino-OFF" style="rounded=0;whiteSpace=wrap;html=1;" vertex="1" parent="1">
          <mxGeometry x="894" y="210" width="84" height="36" as="geometry" />
        </mxCell>
        <mxCell id="YZUe3HRQWO90OGgwzxZx-4" value="" style="rounded=0;orthogonalLoop=1;jettySize=auto;html=1;endArrow=none;endFill=0;exitX=1;exitY=0.5;exitDx=0;exitDy=0;entryX=0;entryY=0.5;entryDx=0;entryDy=0;" edge="1" parent="1" source="HBiXw7slPbwZWd9IsBF3-2" target="YZUe3HRQWO90OGgwzxZx-1">
          <mxGeometry relative="1" as="geometry">
            <mxPoint x="864" y="222" as="sourcePoint" />
          </mxGeometry>
        </mxCell>
        <mxCell id="YZUe3HRQWO90OGgwzxZx-6" value="" style="edgeStyle=orthogonalEdgeStyle;rounded=0;orthogonalLoop=1;jettySize=auto;html=1;exitX=0.5;exitY=1;exitDx=0;exitDy=0;" edge="1" parent="1" source="HBiXw7slPbwZWd9IsBF3-2" target="YZUe3HRQWO90OGgwzxZx-3">
          <mxGeometry relative="1" as="geometry">
            <mxPoint x="804" y="251" as="sourcePoint" />
          </mxGeometry>
        </mxCell>
        <mxCell id="YZUe3HRQWO90OGgwzxZx-3" value="RTC wake up" style="rounded=0;whiteSpace=wrap;html=1;" vertex="1" parent="1">
          <mxGeometry x="746" y="295" width="116" height="60" as="geometry" />
        </mxCell>
        <mxCell id="YZUe3HRQWO90OGgwzxZx-9" value="Arduino-ON" style="rounded=0;whiteSpace=wrap;html=1;" vertex="1" parent="1">
          <mxGeometry x="894" y="307" width="84" height="36" as="geometry" />
        </mxCell>
        <mxCell id="YZUe3HRQWO90OGgwzxZx-10" value="" style="rounded=0;orthogonalLoop=1;jettySize=auto;html=1;endArrow=none;endFill=0;" edge="1" parent="1" target="YZUe3HRQWO90OGgwzxZx-9">
          <mxGeometry relative="1" as="geometry">
            <mxPoint x="862" y="325" as="sourcePoint" />
          </mxGeometry>
        </mxCell>
        <mxCell id="YZUe3HRQWO90OGgwzxZx-12" value="" style="edgeStyle=orthogonalEdgeStyle;rounded=0;orthogonalLoop=1;jettySize=auto;html=1;exitX=0.5;exitY=1;exitDx=0;exitDy=0;" edge="1" parent="1" source="YZUe3HRQWO90OGgwzxZx-3">
          <mxGeometry relative="1" as="geometry">
            <mxPoint x="804" y="355" as="sourcePoint" />
            <mxPoint x="803.9803921568628" y="383" as="targetPoint" />
          </mxGeometry>
        </mxCell>
        <mxCell id="YZUe3HRQWO90OGgwzxZx-14" value="REG_GOOD" style="rhombus;whiteSpace=wrap;html=1;" vertex="1" parent="1">
          <mxGeometry x="754" y="383" width="100" height="52" as="geometry" />
        </mxCell>
        <mxCell id="YZUe3HRQWO90OGgwzxZx-15" value="Running Inference" style="rounded=0;whiteSpace=wrap;html=1;" vertex="1" parent="1">
          <mxGeometry x="746" y="463" width="116" height="60" as="geometry" />
        </mxCell>
        <mxCell id="YZUe3HRQWO90OGgwzxZx-16" value="" style="edgeStyle=orthogonalEdgeStyle;rounded=0;orthogonalLoop=1;jettySize=auto;html=1;exitX=0.5;exitY=1;exitDx=0;exitDy=0;" edge="1" parent="1" source="YZUe3HRQWO90OGgwzxZx-15">
          <mxGeometry relative="1" as="geometry">
            <mxPoint x="804" y="523" as="sourcePoint" />
            <mxPoint x="803.9803921568628" y="551" as="targetPoint" />
          </mxGeometry>
        </mxCell>
        <mxCell id="YZUe3HRQWO90OGgwzxZx-17" value="" style="edgeStyle=orthogonalEdgeStyle;rounded=0;orthogonalLoop=1;jettySize=auto;html=1;exitX=0.5;exitY=1;exitDx=0;exitDy=0;" edge="1" parent="1">
          <mxGeometry relative="1" as="geometry">
            <mxPoint x="803.8199999999999" y="435" as="sourcePoint" />
            <mxPoint x="803.8003921568627" y="463" as="targetPoint" />
          </mxGeometry>
        </mxCell>
        <mxCell id="YZUe3HRQWO90OGgwzxZx-18" value="&lt;div&gt;1&lt;/div&gt;" style="text;html=1;align=center;verticalAlign=middle;resizable=0;points=[];autosize=1;strokeColor=none;fillColor=none;" vertex="1" parent="1">
          <mxGeometry x="812" y="432" width="25" height="26" as="geometry" />
        </mxCell>
        <mxCell id="YZUe3HRQWO90OGgwzxZx-19" value="&lt;div&gt;0&lt;/div&gt;" style="text;html=1;align=center;verticalAlign=middle;resizable=0;points=[];autosize=1;strokeColor=none;fillColor=none;" vertex="1" parent="1">
          <mxGeometry x="870" y="388" width="25" height="26" as="geometry" />
        </mxCell>
        <mxCell id="YZUe3HRQWO90OGgwzxZx-22" value="Model-11Classification" style="rounded=0;whiteSpace=wrap;html=1;" vertex="1" parent="1">
          <mxGeometry x="894" y="475" width="130" height="36" as="geometry" />
        </mxCell>
        <mxCell id="YZUe3HRQWO90OGgwzxZx-23" value="" style="rounded=0;orthogonalLoop=1;jettySize=auto;html=1;endArrow=none;endFill=0;" edge="1" parent="1" target="YZUe3HRQWO90OGgwzxZx-22">
          <mxGeometry relative="1" as="geometry">
            <mxPoint x="862" y="493" as="sourcePoint" />
          </mxGeometry>
        </mxCell>
        <mxCell id="YZUe3HRQWO90OGgwzxZx-26" value="Log measurement" style="rounded=0;whiteSpace=wrap;html=1;" vertex="1" parent="1">
          <mxGeometry x="746" y="551" width="116" height="60" as="geometry" />
        </mxCell>
        <mxCell id="YZUe3HRQWO90OGgwzxZx-27" value="" style="edgeStyle=orthogonalEdgeStyle;rounded=0;orthogonalLoop=1;jettySize=auto;html=1;exitX=0.5;exitY=1;exitDx=0;exitDy=0;" edge="1" parent="1" source="YZUe3HRQWO90OGgwzxZx-26">
          <mxGeometry relative="1" as="geometry">
            <mxPoint x="804" y="611" as="sourcePoint" />
            <mxPoint x="803.9803921568628" y="639" as="targetPoint" />
          </mxGeometry>
        </mxCell>
        <mxCell id="YZUe3HRQWO90OGgwzxZx-28" value="FRAM" style="rounded=0;whiteSpace=wrap;html=1;" vertex="1" parent="1">
          <mxGeometry x="894" y="563" width="62" height="36" as="geometry" />
        </mxCell>
        <mxCell id="YZUe3HRQWO90OGgwzxZx-29" value="" style="rounded=0;orthogonalLoop=1;jettySize=auto;html=1;endArrow=none;endFill=0;" edge="1" parent="1" target="YZUe3HRQWO90OGgwzxZx-28">
          <mxGeometry relative="1" as="geometry">
            <mxPoint x="862" y="581" as="sourcePoint" />
          </mxGeometry>
        </mxCell>
        <mxCell id="YZUe3HRQWO90OGgwzxZx-30" value="Transmit" style="rounded=0;whiteSpace=wrap;html=1;" vertex="1" parent="1">
          <mxGeometry x="746" y="719" width="116" height="60" as="geometry" />
        </mxCell>
        <mxCell id="YZUe3HRQWO90OGgwzxZx-31" value="" style="edgeStyle=orthogonalEdgeStyle;rounded=0;orthogonalLoop=1;jettySize=auto;html=1;exitX=0.5;exitY=1;exitDx=0;exitDy=0;entryX=0.5;entryY=0;entryDx=0;entryDy=0;" edge="1" parent="1" source="YZUe3HRQWO90OGgwzxZx-30" target="YZUe3HRQWO90OGgwzxZx-39">
          <mxGeometry relative="1" as="geometry">
            <mxPoint x="804" y="779" as="sourcePoint" />
            <mxPoint x="803.9803921568628" y="807" as="targetPoint" />
          </mxGeometry>
        </mxCell>
        <mxCell id="YZUe3HRQWO90OGgwzxZx-32" value="LoRA" style="rounded=0;whiteSpace=wrap;html=1;" vertex="1" parent="1">
          <mxGeometry x="894" y="731" width="62" height="36" as="geometry" />
        </mxCell>
        <mxCell id="YZUe3HRQWO90OGgwzxZx-33" value="" style="rounded=0;orthogonalLoop=1;jettySize=auto;html=1;endArrow=none;endFill=0;" edge="1" parent="1" target="YZUe3HRQWO90OGgwzxZx-32">
          <mxGeometry relative="1" as="geometry">
            <mxPoint x="862" y="749" as="sourcePoint" />
          </mxGeometry>
        </mxCell>
        <mxCell id="YZUe3HRQWO90OGgwzxZx-34" value="rain changed?" style="rhombus;whiteSpace=wrap;html=1;" vertex="1" parent="1">
          <mxGeometry x="754" y="639" width="100" height="52" as="geometry" />
        </mxCell>
        <mxCell id="YZUe3HRQWO90OGgwzxZx-35" value="1" style="text;html=1;align=center;verticalAlign=middle;resizable=0;points=[];autosize=1;strokeColor=none;fillColor=none;" vertex="1" parent="1">
          <mxGeometry x="812" y="689" width="25" height="26" as="geometry" />
        </mxCell>
        <mxCell id="YZUe3HRQWO90OGgwzxZx-36" value="0" style="text;html=1;align=center;verticalAlign=middle;resizable=0;points=[];autosize=1;strokeColor=none;fillColor=none;" vertex="1" parent="1">
          <mxGeometry x="870" y="639" width="25" height="26" as="geometry" />
        </mxCell>
        <mxCell id="YZUe3HRQWO90OGgwzxZx-37" value="" style="edgeStyle=orthogonalEdgeStyle;rounded=0;orthogonalLoop=1;jettySize=auto;html=1;exitX=0.5;exitY=1;exitDx=0;exitDy=0;" edge="1" parent="1">
          <mxGeometry relative="1" as="geometry">
            <mxPoint x="803.85" y="691" as="sourcePoint" />
            <mxPoint x="803.8303921568628" y="719" as="targetPoint" />
          </mxGeometry>
        </mxCell>
        <mxCell id="YZUe3HRQWO90OGgwzxZx-39" value="RTC alarm setup" style="rounded=0;whiteSpace=wrap;html=1;" vertex="1" parent="1">
          <mxGeometry x="746" y="823" width="116" height="60" as="geometry" />
        </mxCell>
        <mxCell id="YZUe3HRQWO90OGgwzxZx-42" value="" style="endArrow=classic;html=1;rounded=0;exitX=1;exitY=0.5;exitDx=0;exitDy=0;" edge="1" parent="1" source="YZUe3HRQWO90OGgwzxZx-34">
          <mxGeometry width="50" height="50" relative="1" as="geometry">
            <mxPoint x="852" y="665" as="sourcePoint" />
            <mxPoint x="804" y="795" as="targetPoint" />
            <Array as="points">
              <mxPoint x="1024" y="665" />
              <mxPoint x="1024" y="795" />
            </Array>
          </mxGeometry>
        </mxCell>
        <mxCell id="YZUe3HRQWO90OGgwzxZx-44" value="" style="edgeStyle=orthogonalEdgeStyle;rounded=0;orthogonalLoop=1;jettySize=auto;html=1;exitX=0.5;exitY=1;exitDx=0;exitDy=0;" edge="1" parent="1">
          <mxGeometry relative="1" as="geometry">
            <mxPoint x="804" y="883" as="sourcePoint" />
            <mxPoint x="803.9803921568628" y="911" as="targetPoint" />
          </mxGeometry>
        </mxCell>
        <mxCell id="YZUe3HRQWO90OGgwzxZx-45" value="RTC power down" style="rounded=0;whiteSpace=wrap;html=1;" vertex="1" parent="1">
          <mxGeometry x="746" y="911" width="116" height="60" as="geometry" />
        </mxCell>
        <mxCell id="YZUe3HRQWO90OGgwzxZx-46" value="Arduino-OFF" style="rounded=0;whiteSpace=wrap;html=1;" vertex="1" parent="1">
          <mxGeometry x="894" y="923" width="84" height="36" as="geometry" />
        </mxCell>
        <mxCell id="YZUe3HRQWO90OGgwzxZx-47" value="" style="rounded=0;orthogonalLoop=1;jettySize=auto;html=1;endArrow=none;endFill=0;" edge="1" parent="1" target="YZUe3HRQWO90OGgwzxZx-46">
          <mxGeometry relative="1" as="geometry">
            <mxPoint x="862" y="941" as="sourcePoint" />
          </mxGeometry>
        </mxCell>
        <mxCell id="YZUe3HRQWO90OGgwzxZx-48" value="" style="endArrow=classic;html=1;rounded=0;exitX=1;exitY=0.5;exitDx=0;exitDy=0;" edge="1" parent="1">
          <mxGeometry width="50" height="50" relative="1" as="geometry">
            <mxPoint x="854" y="409" as="sourcePoint" />
            <mxPoint x="1024" y="795" as="targetPoint" />
            <Array as="points">
              <mxPoint x="1068" y="409" />
              <mxPoint x="1068" y="795" />
            </Array>
          </mxGeometry>
        </mxCell>
        <mxCell id="YZUe3HRQWO90OGgwzxZx-50" value="" style="endArrow=classic;html=1;rounded=0;exitX=0.5;exitY=1;exitDx=0;exitDy=0;entryX=0;entryY=0.5;entryDx=0;entryDy=0;" edge="1" parent="1" source="YZUe3HRQWO90OGgwzxZx-45" target="HBiXw7slPbwZWd9IsBF3-2">
          <mxGeometry width="50" height="50" relative="1" as="geometry">
            <mxPoint x="668" y="1089" as="sourcePoint" />
            <mxPoint x="744" y="211" as="targetPoint" />
            <Array as="points">
              <mxPoint x="804" y="1007" />
              <mxPoint x="632" y="1007" />
              <mxPoint x="627" y="228" />
            </Array>
          </mxGeometry>
        </mxCell>
        <mxCell id="HBiXw7slPbwZWd9IsBF3-2" value="&lt;div&gt;Deep Sleep&lt;/div&gt;" style="rounded=0;whiteSpace=wrap;html=1;" vertex="1" parent="1">
          <mxGeometry x="746" y="198" width="116" height="60" as="geometry" />
        </mxCell>
      </root>
    </mxGraphModel>
  </diagram>
</mxfile>
